# xmcd
#
# Track frame offsets:
#	150
#	11985
#	25052
#	38637
#	50977
#	63445
#	76872
#	92935
#	105702
#	118817
#	134382
#	148302
#	161102
#	177567
#	192497
#	204687
#	220692
#	236737
#	248082
#	261267
#	273735
#	284007
#	295145
#	305577
#	319650
#
# Disc length: 4417 seconds
#
# Revision: 1
# Processed by: cddbd v1.5PL3 Copyright (c) Steve Scherf et al.
# Submitted via: audiograbber 1.82.02
#
DISCID=94113f19
DTITLE=Wynn Stewart - Wishful Thinking [CD9)
DYEAR=1900
DGENRE=Country
TTITLE0=Nobody's Fool But My Own
TTITLE1=Wait A Minute
TTITLE2=Inflation Blues
TTITLE3=Heartbreak Mountain
TTITLE4=Wait Till I Get My  Hands On You (2000)
TTITLE5=Wishful Drinkin'
TTITLE6=The Wild Side Of Life
TTITLE7=Searching For Another You
TTITLE8=I Don't Feel Like Singin' Tonight
TTITLE9=California Time Again
TTITLE10=I Told You So
TTITLE11=Lovin' Up A Storm
TTITLE12=Would You Want The World To End
TTITLE13=Breakin' Up Is Breakin' Up My Mind
TTITLE14=Wait Till I Get My Hands On You (1985)
TTITLE15=Would You Want The World To End
TTITLE16=The Wild Side Of Life (w Johnny Paycheck)
TTITLE17=You're That Someone Else (w/o chorus)
TTITLE18=No Time Like The Present (w/o chorus)
TTITLE19=Since Baby's Gone (w/o chorus)
TTITLE20=Hello Little Rock (2000)
TTITLE21=You Can't Take It With You (2000)
TTITLE22=How Many Miles Am I Out Of My Mind (2000)
TTITLE23=Love Ain't Worth A Dime Unless It's Free (1973)
TTITLE24=When
EXTD=
EXTT0=
EXTT1=
EXTT2=
EXTT3=
EXTT4=
EXTT5=
EXTT6=
EXTT7=
EXTT8=
EXTT9=
EXTT10=
EXTT11=
EXTT12=
EXTT13=
EXTT14=
EXTT15=
EXTT16=
EXTT17=
EXTT18=
EXTT19=
EXTT20=
EXTT21=
EXTT22=
EXTT23=
EXTT24=
PLAYORDER=
